<?xml version="1.0" encoding="UTF-8"?>
<svg version="1.1" xmlns="http://www.w3.org/2000/svg" width="1024" height="1024">
<path d="M0 0 C337.92 0 675.84 0 1024 0 C1024 337.92 1024 675.84 1024 1024 C686.08 1024 348.16 1024 0 1024 C0 686.08 0 348.16 0 0 Z " fill="#050608" transform="translate(0,0)"/>
<path d="M0 0 C1.32 0 2.64 0 4 0 C4 0.66 4 1.32 4 2 C5.12680176 1.98952637 6.25360352 1.97905273 7.41455078 1.96826172 C50.8136591 1.60116099 50.8136591 1.60116099 67 4 C68.05832031 4.15597656 69.11664062 4.31195313 70.20703125 4.47265625 C112.05216503 10.87027013 150.54052841 24.812499 184 51 C184.74612549 51.57766113 185.49225098 52.15532227 186.26098633 52.75048828 C206.55103712 68.66617761 223.37009366 88.52579835 236 111 C236.35755371 111.62374512 236.71510742 112.24749023 237.08349609 112.89013672 C243.33175261 123.85185027 248.03648007 135.03243193 252 147 C252.39614502 148.18070068 252.39614502 148.18070068 252.80029297 149.38525391 C273.01334647 210.42442536 268.23374004 276.8992852 240.19482422 334.62646484 C237.49128698 339.99707968 234.34073562 345.00087053 231 350 C230.08423852 351.42990292 229.1703041 352.86097695 228.2578125 354.29296875 C222.2207218 363.6702979 215.74135429 372.29348553 208.27636719 380.57666016 C206.58772013 382.45975356 204.95352 384.3878936 203.3125 386.3125 C195.33383154 395.32190554 186.59430601 402.79782617 177 410 C176.43120117 410.42958008 175.86240234 410.85916016 175.27636719 411.30175781 C134.95707162 441.55869885 87.12235563 455.21241456 37.11645508 455.11352539 C35.08261714 455.11321866 33.0487791 455.11335322 31.01494122 455.11389065 C25.59350622 455.11411539 20.17209352 455.10834095 14.75066376 455.10128021 C9.65388421 455.09556378 4.55710995 455.09531592 -0.53967285 455.09460449 C-15.42228483 455.08936777 -30.3048927 455.07540654 -45.1875 455.0625 C-78.455625 455.041875 -111.72375 455.02125 -146 455 C-146 344.78 -146 234.56 -146 121 C-113.99 121 -81.98 121 -49 121 C-49 204.49 -49 287.98 -49 374 C49.63668846 374.57169251 49.63668846 374.57169251 128.5 326.43359375 C133.55733016 320.97475258 137.95946149 315.24446861 142 309 C142.56332031 308.15566406 143.12664062 307.31132812 143.70703125 306.44140625 C155.34750801 287.91649402 162.00023009 264.76707643 162.23828125 242.93359375 C162.2480751 242.18564041 162.25786896 241.43768707 162.26795959 240.66706848 C162.69475427 199.59996577 153.77452592 162.28549457 124.22265625 132.09375 C105.67025507 113.9030948 82.59195019 102.13076253 57.92578125 94.58886719 C56.32073336 94.09807415 54.72198773 93.58672973 53.125 93.0703125 C47.21981308 91.28030272 41.21250353 90.31062356 35.125 89.375 C34.32271973 89.25165283 33.52043945 89.12830566 32.69384766 89.0012207 C20.28633548 87.20438215 7.89137629 86.84211968 -4.62231445 86.79467773 C-6.24982945 86.78507448 -7.87734209 86.77506307 -9.50485229 86.76467896 C-13.88202674 86.7378885 -18.25921169 86.71674072 -22.63642144 86.69667697 C-27.22615435 86.67465586 -31.81585587 86.64734684 -36.40556335 86.62062073 C-45.07848355 86.57091006 -53.75142137 86.52589195 -62.42437571 86.48259836 C-72.30600933 86.43303993 -82.18761142 86.37819142 -92.06921446 86.32291877 C-112.37944688 86.20943116 -132.68970946 86.10252112 -153 86 C-153.53272522 84.86313248 -154.06545044 83.72626495 -154.61431885 82.5549469 C-155.32909847 81.0321348 -156.04392435 79.50934442 -156.75878906 77.98657227 C-157.2826268 76.86818844 -157.2826268 76.86818844 -157.81704712 75.727211 C-160.73400558 69.51745276 -163.76146921 63.36789953 -166.85742188 57.24560547 C-170.56393235 49.90433043 -174.24401614 42.54975167 -177.92871094 35.19750977 C-178.8160309 33.42795242 -179.704062 31.6587515 -180.59277344 29.88989258 C-181.90230765 27.28302032 -183.2092039 24.67483974 -184.515625 22.06640625 C-184.90735901 21.28809952 -185.29909302 20.50979279 -185.70269775 19.707901 C-193 5.11476908 -193 5.11476908 -193 2 C-97.465 1.505 -97.465 1.505 0 1 C0 0.67 0 0.34 0 0 Z " fill="#5A3DEE" transform="translate(468,194)"/>
<path d="M0 0 C1.32 0 2.64 0 4 0 C4 0.66 4 1.32 4 2 C13.24 2 22.48 2 32 2 C32 2.33 32 2.66 32 3 C31.00419922 3.09087891 31.00419922 3.09087891 29.98828125 3.18359375 C24.69184803 3.686175 19.6101283 4.36338334 14.4375 5.625 C12 6 12 6 10.22094727 5.53173828 C7.44177858 4.86635086 4.88494925 4.87025949 2.02734375 4.8671875 C0.88072266 4.86589844 -0.26589844 4.86460937 -1.44726562 4.86328125 C-3.23680664 4.86908203 -3.23680664 4.86908203 -5.0625 4.875 C-6.8578418 4.86919922 -6.8578418 4.86919922 -8.68945312 4.86328125 C-9.83478516 4.86457031 -10.98011719 4.86585938 -12.16015625 4.8671875 C-13.20824463 4.86831543 -14.25633301 4.86944336 -15.33618164 4.87060547 C-18.10474232 4.88500995 -18.10474232 4.88500995 -21 6 C-22.67007502 5.68418629 -24.33632338 5.34794972 -26 5 C-28.16517074 4.91948987 -30.33262348 4.89236677 -32.49926758 4.90234375 C-33.79443802 4.90564697 -35.08960846 4.9089502 -36.42402649 4.91235352 C-37.45512763 4.91853195 -37.45512763 4.91853195 -38.5070591 4.92483521 C-40.67298491 4.93766859 -42.83884899 4.94413272 -45.00480652 4.94897461 C-50.3855813 4.96230452 -55.76629742 4.98646097 -61.14703369 5.01037598 C-65.69523993 5.03018867 -70.24342382 5.04579761 -74.79166222 5.05593872 C-76.91419386 5.0623702 -79.03663236 5.07487955 -81.15913391 5.08764648 C-87.55000049 5.1038277 -93.68171963 4.95447652 -100 4 C-102.34139082 3.92300396 -104.65664917 3.95118019 -107 4 C-107.33 4.66 -107.66 5.32 -108 6 C-108.99 5.67 -109.98 5.34 -111 5 C-117.75347378 3.90154342 -125.42862414 2.80954138 -132 5 C-138.54098361 5.2295082 -138.54098361 5.2295082 -141 4 C-141.804375 4.165 -142.60875 4.33 -143.4375 4.5 C-146 5 -146 5 -149 4 C-150.99961564 3.96079185 -153.00049364 3.95556653 -155 4 C-155.33 4.66 -155.66 5.32 -156 6 C-156.99 5.34 -157.98 4.68 -159 4 C-160.92343219 3.97455847 -160.92343219 3.97455847 -162.99609375 4.37109375 C-168.3708595 5.11060053 -173.64496329 5.11151042 -179.0625 5.0625 C-180.02349609 5.05798828 -180.98449219 5.05347656 -181.97460938 5.04882812 C-184.31643383 5.03717726 -186.65822566 5.01924746 -189 5 C-188.34 7.97 -187.68 10.94 -187 14 C-185.35 14.33 -183.7 14.66 -182 15 C-182.226875 15.5775 -182.45375 16.155 -182.6875 16.75 C-183.2701354 19.08868223 -183.2701354 19.08868223 -181.625 21 C-181.08875 21.66 -180.5525 22.32 -180 23 C-179.85175781 23.60585937 -179.70351563 24.21171875 -179.55078125 24.8359375 C-178.90494595 27.37347477 -177.84671126 29.34619188 -176.5625 31.625 C-176.13066406 32.40101563 -175.69882812 33.17703125 -175.25390625 33.9765625 C-174.03222733 36.12016373 -174.03222733 36.12016373 -172 38 C-171.51154465 39.98638508 -171.02599566 41.97370315 -170.57421875 43.96875 C-169.82769342 46.60951986 -168.4528502 48.6886474 -167 51 C-167 51.99 -167 52.98 -167 54 C-165.515 54.495 -165.515 54.495 -164 55 C-163.87625 56.11375 -163.87625 56.11375 -163.75 57.25 C-162.85566215 60.52923879 -161.40099388 61.67645754 -159 64 C-159 64.99 -159 65.98 -159 67 C-158.505 67.4125 -158.01 67.825 -157.5 68.25 C-155.17257175 70.96533296 -155.80550164 73.56386238 -156 77 C-155.360625 77.268125 -154.72125 77.53625 -154.0625 77.8125 C-152 79 -152 79 -151 82 C-150.34 82 -149.68 82 -149 82 C-148.01 82.99 -148.01 82.99 -147 84 C-144.15941742 84.29699383 -144.15941742 84.29699383 -140.77033997 84.23377991 C-139.80125789 84.23528483 -139.80125789 84.23528483 -138.81259841 84.23682016 C-136.63772131 84.23777627 -134.46316383 84.2244058 -132.28833008 84.21118164 C-130.73291115 84.20898137 -129.17749073 84.20767514 -127.62207031 84.2071991 C-124.26678671 84.20426044 -120.9116001 84.19499476 -117.55634499 84.18089485 C-112.24888339 84.15866368 -106.94145803 84.15054391 -101.63395691 84.14439392 C-93.23458436 84.13299901 -84.83526513 84.1122671 -76.43592232 84.08749622 C-61.40847638 84.04324637 -46.38101249 84.00995507 -31.35351866 83.98725218 C-26.08012687 83.9788545 -20.80678855 83.96483784 -15.53342307 83.94627964 C-12.24661813 83.93561047 -8.95981367 83.92904323 -5.67299652 83.92347908 C-4.15206331 83.92001828 -2.63113288 83.91481487 -1.11021233 83.90771103 C0.97168511 83.89820416 3.05350538 83.89497633 5.13542175 83.89320374 C6.88062748 83.88792459 6.88062748 83.88792459 8.6610899 83.8825388 C12.16777082 84.00590209 15.53770907 84.44381127 19 85 C19 85.33 19 85.66 19 86 C-37.76 86 -94.52 86 -153 86 C-156.96 77.585 -156.96 77.585 -161 69 C-163.91327232 63.11473629 -163.91327232 63.11473629 -166.85742188 57.24560547 C-170.56393235 49.90433043 -174.24401614 42.54975167 -177.92871094 35.19750977 C-178.8160309 33.42795242 -179.704062 31.6587515 -180.59277344 29.88989258 C-181.90230765 27.28302032 -183.2092039 24.67483974 -184.515625 22.06640625 C-184.90735901 21.28809952 -185.29909302 20.50979279 -185.70269775 19.707901 C-193 5.11476908 -193 5.11476908 -193 2 C-97.465 1.505 -97.465 1.505 0 1 C0 0.67 0 0.34 0 0 Z " fill="#8654FA" transform="translate(468,194)"/>
<path d="M0 0 C31.68 0 63.36 0 96 0 C96 83.49 96 166.98 96 253 C95.67 253 95.34 253 95 253 C95 170.17 95 87.34 95 2 C90.545 2.495 90.545 2.495 86 3 C83.55543732 3.0640357 81.10934766 3.08632738 78.6640625 3.0625 C76.69759766 3.05089844 76.69759766 3.05089844 74.69140625 3.0390625 C73.33593198 3.02662996 71.98046303 3.01360321 70.625 3 C67.92964452 2.97336981 65.23453381 2.95349686 62.5390625 2.9375 C61.35521973 2.92589844 60.17137695 2.91429687 58.95166016 2.90234375 C55.94019576 2.86177662 55.94019576 2.86177662 53 4 C52.34 3.67 51.68 3.34 51 3 C49.64780929 2.91592526 48.29153543 2.89273475 46.93676758 2.90234375 C45.67954643 2.90729858 45.67954643 2.90729858 44.39692688 2.91235352 C43.48863632 2.92065186 42.58034576 2.9289502 41.64453125 2.9375 C40.70953293 2.94128662 39.77453461 2.94507324 38.811203 2.94897461 C34.80401287 2.96533364 30.79692395 2.99332109 26.78979492 3.02050781 C23.86637855 3.03866716 20.9429792 3.05072068 18.01953125 3.0625 C16.67227715 3.07494751 16.67227715 3.07494751 15.29780579 3.08764648 C14.44389755 3.09094971 13.58998932 3.09425293 12.71020508 3.09765625 C11.59673454 3.10551147 11.59673454 3.10551147 10.46076965 3.11352539 C7.28878514 2.96718874 4.14344431 2.44906347 1 2 C1 99.35 1 196.7 1 297 C0.67 297 0.34 297 0 297 C0 198.99 0 100.98 0 0 Z " fill="#7A54FD" transform="translate(323,315)"/>
<path d="M0 0 C39.18012359 -1.07789561 79.98111288 6.8149509 115 25 C111.06265283 26.31244906 109.62524187 25.33670279 105.8125 23.8125 C104.06839844 23.11640625 104.06839844 23.11640625 102.2890625 22.40625 C99.68676111 21.29362708 97.18935292 20.12821548 94.6875 18.8125 C91.51733957 17.15099034 88.49546111 16.26298271 85.0078125 15.50390625 C82.86632601 14.96645147 80.91753009 14.20987447 78.875 13.375 C75.48233581 12.04073088 72.67375419 11.72446844 69 12 C69 11.34 69 10.68 69 10 C67.9275 10.226875 66.855 10.45375 65.75 10.6875 C62 11 62 11 60.125 9.5625 C56.74322033 7.0758973 53.06372309 7.76555444 49 8 C49 7.34 49 6.68 49 6 C44.36782404 5.19786033 39.7250792 4.53300444 35.0625 3.9375 C34.38509766 3.84662109 33.70769531 3.75574219 33.00976562 3.66210938 C29.659632 3.23491113 26.43919512 3.0005558 23.05859375 3.00390625 C20 3 20 3 19 2 C17.58672053 1.84379445 16.1664541 1.74943827 14.74609375 1.68359375 C13.89208984 1.64169922 13.03808594 1.59980469 12.15820312 1.55664062 C11.26037109 1.51732422 10.36253906 1.47800781 9.4375 1.4375 C8.53580078 1.39431641 7.63410156 1.35113281 6.70507812 1.30664062 C4.47021515 1.20021858 2.23523692 1.09820012 0 1 C0 0.67 0 0.34 0 0 Z " fill="#7952F3" transform="translate(501,197)"/>
<path d="M0 0 C1.32 0.33 2.64 0.66 4 1 C-15.64907868 20.03329559 -45.12859891 38.66446641 -72 45 C-74.8828125 44.6171875 -74.8828125 44.6171875 -77 44 C-76.01 43.505 -76.01 43.505 -75 43 C-74.67 42.01 -74.34 41.02 -74 40 C-73.01 39.505 -73.01 39.505 -72 39 C-69.875 39.9375 -69.875 39.9375 -68 41 C-67.505 40.505 -67.505 40.505 -67 40 C-65.33382885 39.95936168 -63.66611905 39.957279 -62 40 C-61.67 39.34 -61.34 38.68 -61 38 C-60.01 38 -59.02 38 -58 38 C-58 37.34 -58 36.68 -58 36 C-54.535 35.505 -54.535 35.505 -51 35 C-51 34.34 -51 33.68 -51 33 C-48.09399739 31.74335022 -46.20395416 31 -43 31 C-43 30.34 -43 29.68 -43 29 C-42.113125 28.7525 -41.22625 28.505 -40.3125 28.25 C-36.96451937 27.18876834 -36.96451937 27.18876834 -34.5625 25 C-31.51254189 22.61954489 -28.70184072 21.99664943 -25 21 C-24.67 20.34 -24.34 19.68 -24 19 C-21.9375 18.375 -21.9375 18.375 -20 18 C-20 17.34 -20 16.68 -20 16 C-18.35443434 14.96564444 -16.6829392 13.97236487 -15 13 C-14.113125 12.278125 -13.22625 11.55625 -12.3125 10.8125 C-10 9 -10 9 -8 9 C-7.67 8.34 -7.34 7.68 -7 7 C-6.01 6.67 -5.02 6.34 -4 6 C-4 5.34 -4 4.68 -4 4 C-3.34 4 -2.68 4 -2 4 C-1.34 2.68 -0.68 1.36 0 0 Z " fill="#3828E5" transform="translate(653,593)"/>
<path d="M0 0 C0 0.66 0 1.32 0 2 C-9.79291352 4.58622873 -19.56390481 7.09078302 -29.5625 8.75 C-30.59383057 8.92269409 -30.59383057 8.92269409 -31.64599609 9.09887695 C-43.33776012 10.9451653 -54.88330031 11.12801708 -66.6875 11.0625 C-68.27538921 11.05747247 -69.86327996 11.05291179 -71.45117188 11.04882812 C-75.30082025 11.03792755 -79.15039253 11.02073283 -83 11 C-82.67 10.34 -82.34 9.68 -82 9 C-80.99211426 8.97494385 -79.98422852 8.9498877 -78.94580078 8.92407227 C-75.16233258 8.82902242 -71.37900694 8.72905096 -67.59570312 8.62768555 C-65.96650557 8.58470178 -64.33727346 8.54300576 -62.70800781 8.50268555 C-47.8508575 8.45978094 -47.8508575 8.45978094 -33.3125 5.9375 C-30 5 -30 5 -26.625 5.0625 C-22.6806555 4.99449406 -19.9418635 4.06558977 -16.28125 2.73046875 C-12.88409271 1.64268037 -9.54114117 1.3727517 -6 1 C-4 0 -4 0 0 0 Z " fill="#3D2BE5" transform="translate(574,638)"/>
<path d="M0 0 C11.69998437 -0.04626739 23.3999471 -0.08184065 35.1000042 -0.10362434 C40.5323598 -0.11407752 45.96465298 -0.12826461 51.39697266 -0.15087891 C56.63594301 -0.1725527 61.87485319 -0.18455706 67.1138649 -0.18975449 C69.11622185 -0.19346009 71.11857538 -0.20069583 73.12090683 -0.21146011 C75.91775473 -0.22590247 78.7143515 -0.227981 81.51123047 -0.22705078 C82.34560638 -0.23424133 83.1799823 -0.24143188 84.03964233 -0.24884033 C89.77189568 -0.22810432 89.77189568 -0.22810432 92 2 C90.42798828 1.98259766 90.42798828 1.98259766 88.82421875 1.96484375 C87.44531428 1.95546345 86.06640789 1.9463635 84.6875 1.9375 C83.99720703 1.92912109 83.30691406 1.92074219 82.59570312 1.91210938 C79.4516975 1.89692094 77.00579981 1.99806673 74 3 C72.33018396 2.6828198 70.66392457 2.34676204 69 2 C66.80827089 1.92416871 64.61437103 1.90250669 62.42138672 1.91821289 C60.45442337 1.92800926 60.45442337 1.92800926 58.44772339 1.93800354 C57.75221249 1.94374453 57.05670158 1.94948551 56.34011459 1.95540047 C54.15456214 1.97285693 51.9690834 1.98310996 49.78347778 1.99131775 C43.57221516 2.01572023 37.36105267 2.0514465 31.14990234 2.09594727 C27.34459204 2.12270981 23.53933834 2.13976362 19.73395157 2.15081596 C18.28504459 2.15702595 16.83614874 2.16703156 15.38729477 2.18089485 C13.36487043 2.20008442 11.34233282 2.20594522 9.31982422 2.21118164 C8.16908417 2.21863907 7.01834412 2.2260965 5.83273315 2.23377991 C3 2 3 2 0 0 Z " fill="#784CFA" transform="translate(373,197)"/>
<path d="M0 0 C21.18488066 7.25669945 39.57900867 32.50181513 52 50 C51.505 50.99 51.505 50.99 51 52 C49.66590963 50.37562145 48.33278126 48.75045282 47 47.125 C46.16855469 46.11308594 45.33710937 45.10117187 44.48046875 44.05859375 C43.00205909 42.23560986 41.53991557 40.39893732 40.11328125 38.53515625 C35.97195209 33.13615662 31.45620641 28.21811262 26.6875 23.375 C26.07624268 22.7461792 25.46498535 22.1173584 24.83520508 21.46948242 C24.25407959 20.8891626 23.6729541 20.30884277 23.07421875 19.7109375 C22.55432373 19.18806152 22.03442871 18.66518555 21.4987793 18.12646484 C19.91278879 16.69959388 19.91278879 16.69959388 17 17 C16.690625 16.1646875 16.690625 16.1646875 16.375 15.3125 C14.42316968 12.02987629 12.05769006 10.29326754 9 8 C8.34 8 7.68 8 7 8 C6.525625 7.360625 6.05125 6.72125 5.5625 6.0625 C4.0908635 3.71627037 4.0908635 3.71627037 1 3 C0.67 2.01 0.34 1.02 0 0 Z " fill="#6848F0" transform="translate(642,239)"/>
<path d="M0 0 C0 0.66 0 1.32 0 2 C9.24 2 18.48 2 28 2 C28 2.33 28 2.66 28 3 C27.00419922 3.09087891 27.00419922 3.09087891 25.98828125 3.18359375 C20.69184803 3.686175 15.6101283 4.36338334 10.4375 5.625 C7.81355196 6.02868431 6.53874695 5.65282064 4 5 C1.32697981 4.9072941 -1.32412069 4.95540201 -4 5 C-4 4.34 -4 3.68 -4 3 C-5.32 2.67 -6.64 2.34 -8 2 C-4.91190305 0.23537317 -3.76687864 0 0 0 Z " fill="#764FEE" transform="translate(472,194)"/>
<path d="M0 0 C1.32 0.33 2.64 0.66 4 1 C1.89972982 4.58563066 -0.20588983 8.1680911 -2.3125 11.75 C-3.20485352 13.27367187 -3.20485352 13.27367187 -4.11523438 14.828125 C-4.69208984 15.8078125 -5.26894531 16.7875 -5.86328125 17.796875 C-6.65665894 19.14797363 -6.65665894 19.14797363 -7.46606445 20.52636719 C-8.86990948 22.79021532 -10.36458228 24.89946348 -12 27 C-12.99 26.67 -13.98 26.34 -15 26 C-14.01 25.67 -13.02 25.34 -12 25 C-11.27122432 23.35954024 -10.61402304 21.68677145 -10 20 C-9.01065558 18.27323971 -7.98899847 16.56463145 -6.9375 14.875 C-5.27320598 12.19748052 -4.00009199 10.00027598 -3 7 C-2.34 7 -1.68 7 -1 7 C-0.67 4.69 -0.34 2.38 0 0 Z " fill="#3B2AE6" transform="translate(705,526)"/>
<path d="M0 0 C0.66 0 1.32 0 2 0 C-0.24575304 9.29820555 -3.54923511 18.09948344 -7 27 C-7.66 26.67 -8.32 26.34 -9 26 C-7.99795285 22.98487159 -6.99046614 19.97204599 -5.96484375 16.96484375 C-5.62582031 15.96582031 -5.28679688 14.96679688 -4.9375 13.9375 C-4.59589844 12.93589844 -4.25429688 11.93429687 -3.90234375 10.90234375 C-3.08525964 8.27423338 -2.48180127 5.70702776 -2 3 C-1.34 3 -0.68 3 0 3 C0 2.01 0 1.02 0 0 Z " fill="#402DE7" transform="translate(722,487)"/>
<path d="M0 0 C4.84987067 -0.32476812 7.73509267 0.53010818 12 2.8125 C12.99 3.33457031 13.98 3.85664063 15 4.39453125 C15.99 4.92433594 16.98 5.45414062 18 6 C19.99721839 7.00554398 21.99643501 8.00716199 24 9 C19.84788464 10.38403845 18.19259225 9.02670466 14.25 7.25 C13.05890625 6.71890625 11.8678125 6.1878125 10.640625 5.640625 C9.43921875 5.09921875 8.2378125 4.5578125 7 4 C4.6707464 2.99012962 2.33597335 1.99428609 0 1 C0 0.67 0 0.34 0 0 Z " fill="#724FEC" transform="translate(530,288)"/>
<path d="M0 0 C0.99 0.33 1.98 0.66 3 1 C-1.66666667 7 -6.33333333 13 -11 19 C-11.33 18.01 -11.66 17.02 -12 16 C-10.6875 13.8125 -10.6875 13.8125 -9 12 C-8.34 12 -7.68 12 -7 12 C-6.7525 11.071875 -6.505 10.14375 -6.25 9.1875 C-4.90181032 5.74961632 -3.95347882 5.00074372 -1 3 C-0.67 2.01 -0.34 1.02 0 0 Z " fill="#3A2AE4" transform="translate(689,554)"/>
<path d="M0 0 C0.99 0.33 1.98 0.66 3 1 C1.89718873 2.27200971 0.79269231 3.54255853 -0.3125 4.8125 C-0.92738281 5.52019531 -1.54226563 6.22789062 -2.17578125 6.95703125 C-3.07876953 7.96830078 -3.07876953 7.96830078 -4 9 C-4.515625 9.5775 -5.03125 10.155 -5.5625 10.75 C-7 12 -7 12 -9.6875 12.1875 C-10.450625 12.125625 -11.21375 12.06375 -12 12 C-8 8 -4 4 0 0 Z " fill="#4A35E8" transform="translate(595,522)"/>
<path d="M0 0 C0.66 0 1.32 0 2 0 C0.87723429 7.05909078 -0.37563401 14.03843148 -2 21 C-2.66 20.34 -3.32 19.68 -4 19 C-3.7578125 15.7421875 -3.7578125 15.7421875 -3.125 11.875 C-2.92132812 10.59367187 -2.71765625 9.31234375 -2.5078125 7.9921875 C-2.34023438 7.00476563 -2.17265625 6.01734375 -2 5 C-1.34 5 -0.68 5 0 5 C-0.2784375 4.0409375 -0.2784375 4.0409375 -0.5625 3.0625 C-0.706875 2.381875 -0.85125 1.70125 -1 1 C-0.67 0.67 -0.34 0.34 0 0 Z " fill="#402EE5" transform="translate(727,465)"/>
<path d="M0 0 C3.29240875 2.79854744 5.03562946 6.20673275 7 10 C7 10.99 7 11.98 7 13 C7.99 13.33 8.98 13.66 10 14 C10.33 16.64 10.66 19.28 11 22 C7.92815242 18.29827831 5.93178248 14.15955301 3.8125 9.875 C3.44447266 9.14667969 3.07644531 8.41835937 2.69726562 7.66796875 C0 2.25342069 0 2.25342069 0 0 Z " fill="#8651F9" transform="translate(294,235)"/>
<path d="M0 0 C0.99 0.33 1.98 0.66 3 1 C-0.56320845 6.09210286 -4.04741286 10.22660027 -9 14 C-9 13.01 -9 12.02 -9 11 C-8.34 11 -7.68 11 -7 11 C-7 10.34 -7 9.68 -7 9 C-6.34 9 -5.68 9 -5 9 C-4.67 8.01 -4.34 7.02 -4 6 C-2.69418644 3.9819245 -1.36363208 1.97946592 0 0 Z " fill="#3828DD" transform="translate(674,572)"/>
<path d="M0 0 C0.66 0.66 1.32 1.32 2 2 C0.56988027 2.86646667 -0.86940619 3.71781829 -2.3125 4.5625 C-3.11300781 5.03816406 -3.91351562 5.51382813 -4.73828125 6.00390625 C-7 7 -7 7 -10 6 C-10.33 6.66 -10.66 7.32 -11 8 C-11.66 7.01 -12.32 6.02 -13 5 C-8.71 3.35 -4.42 1.7 0 0 Z " fill="#4A35E9" transform="translate(553,552)"/>
<path d="M0 0 C1.98 0.99 3.96 1.98 6 3 C5.34 4.65 4.68 6.3 4 8 C2.68 8 1.36 8 0 8 C-1.125 2.25 -1.125 2.25 0 0 Z " fill="#21214F" transform="translate(161,489)"/>
<path d="M0 0 C0 0.99 0 1.98 0 3 C-6.72727273 9 -6.72727273 9 -11 9 C-11 8.34 -11 7.68 -11 7 C-9.21601386 5.71993203 -7.37146094 4.52339649 -5.5 3.375 C-3.96859375 2.42753906 -3.96859375 2.42753906 -2.40625 1.4609375 C-1.6121875 0.97882812 -0.818125 0.49671875 0 0 Z " fill="#4B34E8" transform="translate(572,541)"/>
<path d="M0 0 C2.4702708 2.4702708 2.76871663 3.53074952 3 7 C2.19845547 9.47656706 1.15158796 11.65076056 0 14 C-0.66 13.34 -1.32 12.68 -2 12 C-1.7578125 9.1796875 -1.7578125 9.1796875 -1.125 5.875 C-0.92132812 4.77929688 -0.71765625 3.68359375 -0.5078125 2.5546875 C-0.34023438 1.71164062 -0.17265625 0.86859375 0 0 Z " fill="#5039E5" transform="translate(629,453)"/>
<path d="M0 0 C1.88391785 3.26545761 2.49287967 6.28111761 3 10 C2.01 10 1.02 10 0 10 C-0.66 7.69 -1.32 5.38 -2 3 C-1.34 3 -0.68 3 0 3 C0 2.01 0 1.02 0 0 Z " fill="#4F36E1" transform="translate(723,353)"/>
<path d="M0 0 C0.99 0 1.98 0 3 0 C3 2.97 3 5.94 3 9 C2.01 9 1.02 9 0 9 C0 6.03 0 3.06 0 0 Z " fill="#0A0A1E" transform="translate(732,432)"/>
<path d="M0 0 C0 0.66 0 1.32 0 2 C-0.99 2 -1.98 2 -3 2 C-3 2.66 -3 3.32 -3 4 C-9.0546875 4.9765625 -9.0546875 4.9765625 -11 5 C-11.66 4.34 -12.32 3.68 -13 3 C-11.2092015 2.49689942 -9.41733089 1.99761372 -7.625 1.5 C-6.62726562 1.2215625 -5.62953125 0.943125 -4.6015625 0.65625 C-2 0 -2 0 0 0 Z " fill="#08081E" transform="translate(579,638)"/>
<path d="M0 0 C0.66 0.99 1.32 1.98 2 3 C-0.625 7.875 -0.625 7.875 -4 9 C-3.46930939 5.17902761 -2.50298434 2.93828597 0 0 Z " fill="#4934E2" transform="translate(604,511)"/>
<path d="M0 0 C1.65 0 3.3 0 5 0 C5.33 0.66 5.66 1.32 6 2 C5.0625 4.625 5.0625 4.625 4 7 C2.10786631 4.61426621 0.97608217 2.92824652 0 0 Z " fill="#794AEF" transform="translate(280,208)"/>
<path d="M0 0 C3.85645121 -0.22036864 6.49223216 0.39644899 10 2 C10 2.33 10 2.66 10 3 C7.03 3 4.06 3 1 3 C0.67 2.01 0.34 1.02 0 0 Z " fill="#0A0814" transform="translate(539,197)"/>
<path d="M0 0 C-0.99 0.495 -0.99 0.495 -2 1 C-2.33 1.66 -2.66 2.32 -3 3 C-4.9375 2.625 -4.9375 2.625 -7 2 C-7.33 1.34 -7.66 0.68 -8 0 C-4.94736336 -0.98120464 -3.05263664 -0.98120464 0 0 Z " fill="#4631DC" transform="translate(526,563)"/>
<path d="M0 0 C0.66 0.33 1.32 0.66 2 1 C0.515 4.465 0.515 4.465 -1 8 C-1.66 7.67 -2.32 7.34 -3 7 C-1.125 1.125 -1.125 1.125 0 0 Z " fill="#3C2CE2" transform="translate(711,517)"/>
</svg>
